HIERARCHY
ROOT Haolin_28_06:Solving:Hips
{
	OFFSET 0.000000 0.000000 0.000000
	CHANNELS 6 Xposition Yposition Zposition Xrotation Yrotation Zrotation
	JOINT Haolin_28_06:Solving:Spine
	{
		OFFSET 0.000000 -12.181966 2.015561
		CHANNELS 6 Xposition Yposition Zposition Xrotation Yrotation Zrotation
		JOINT Haolin_28_06:Solving:Spine1
		{
			OFFSET 0.000000 -8.890296 1.567602
			CHANNELS 6 Xposition Yposition Zposition Xrotation Yrotation Zrotation
			JOINT Haolin_28_06:Solving:Spine2
			{
				OFFSET 0.000000 -8.993092 0.786796
				CHANNELS 6 Xposition Yposition Zposition Xrotation Yrotation Zrotation
				JOINT Haolin_28_06:Solving:Spine3
				{
					OFFSET 0.000000 -9.027443 0.000000
					CHANNELS 6 Xposition Yposition Zposition Xrotation Yrotation Zrotation
					JOINT Haolin_28_06:Solving:Neck
					{
						OFFSET 0.000000 -11.606712 -1.160669
						CHANNELS 6 Xposition Yposition Zposition Xrotation Yrotation Zrotation
						JOINT Haolin_28_06:Solving:Neck1
						{
							OFFSET 0.000000 -7.471592 -0.653680
							CHANNELS 6 Xposition Yposition Zposition Xrotation Yrotation Zrotation
							JOINT Haolin_28_06:Solving:Head
							{
								OFFSET 0.000000 -7.386181 -1.302382
								CHANNELS 6 Xposition Yposition Zposition Xrotation Yrotation Zrotation
								JOINT Haolin_28_06:Solving:HeadEnd
								{
									OFFSET 0.000000 -9.728081 0.000002
									CHANNELS 6 Xposition Yposition Zposition Xrotation Yrotation Zrotation
									End Site
									{
										OFFSET 0.000000 -9.728081 0.000002
									}
								}
							}
						}
					}
					JOINT Haolin_28_06:Solving:RightShoulder
					{
						OFFSET 0.000000 -8.290508 -5.270916
						CHANNELS 6 Xposition Yposition Zposition Xrotation Yrotation Zrotation
						JOINT Haolin_28_06:Solving:RightArm
						{
							OFFSET -19.261074 -0.000008 0.000000
							CHANNELS 6 Xposition Yposition Zposition Xrotation Yrotation Zrotation
							JOINT Haolin_28_06:Solving:RightForeArm
							{
								OFFSET -30.691700 -0.000011 0.000000
								CHANNELS 6 Xposition Yposition Zposition Xrotation Yrotation Zrotation
								JOINT Haolin_28_06:Solving:RightHand
								{
									OFFSET -20.216934 -0.000008 0.000000
									CHANNELS 6 Xposition Yposition Zposition Xrotation Yrotation Zrotation
									JOINT Haolin_28_06:Solving:RightHandThumb1
									{
										OFFSET -4.948814 2.881329 -3.679893
										CHANNELS 6 Xposition Yposition Zposition Xrotation Yrotation Zrotation
										End Site
										{
											OFFSET -7.039886 -0.000004 -7.104978
										}
									}
									JOINT Haolin_28_06:Solving:RightHandMiddle1
									{
										OFFSET -13.196846 -0.000004 0.084595
										CHANNELS 6 Xposition Yposition Zposition Xrotation Yrotation Zrotation
										End Site
										{
											OFFSET -10.002037 -0.000004 0.000000
										}
									}
								}
							}
						}
					}
					JOINT Haolin_28_06:Solving:LeftShoulder
					{
						OFFSET 0.000000 -8.290508 -5.270916
						CHANNELS 6 Xposition Yposition Zposition Xrotation Yrotation Zrotation
						JOINT Haolin_28_06:Solving:LeftArm
						{
							OFFSET 19.261074 -0.000008 0.000000
							CHANNELS 6 Xposition Yposition Zposition Xrotation Yrotation Zrotation
							JOINT Haolin_28_06:Solving:LeftForeArm
							{
								OFFSET 30.691700 -0.000011 0.000000
								CHANNELS 6 Xposition Yposition Zposition Xrotation Yrotation Zrotation
								JOINT Haolin_28_06:Solving:LeftHand
								{
									OFFSET 20.216934 -0.000008 0.000000
									CHANNELS 6 Xposition Yposition Zposition Xrotation Yrotation Zrotation
									JOINT Haolin_28_06:Solving:LeftHandThumb1
									{
										OFFSET 4.948814 2.881329 -3.679893
										CHANNELS 6 Xposition Yposition Zposition Xrotation Yrotation Zrotation
										End Site
										{
											OFFSET 7.039886 -0.000004 -7.104978
										}
									}
									JOINT Haolin_28_06:Solving:LeftHandMiddle1
									{
										OFFSET 13.196846 -0.000004 0.084595
										CHANNELS 6 Xposition Yposition Zposition Xrotation Yrotation Zrotation
										End Site
										{
											OFFSET 10.002037 -0.000004 0.000000
										}
									}
								}
							}
						}
					}
				}
			}
		}
	}
	JOINT Haolin_28_06:Solving:RightUpLeg
	{
		OFFSET -10.083070 0.000000 0.000000
		CHANNELS 6 Xposition Yposition Zposition Xrotation Yrotation Zrotation
		JOINT Haolin_28_06:Solving:RightLeg
		{
			OFFSET 0.000000 47.042522 -0.000008
			CHANNELS 6 Xposition Yposition Zposition Xrotation Yrotation Zrotation
			JOINT Haolin_28_06:Solving:RightFoot
			{
				OFFSET 0.000000 38.766415 -0.000006
				CHANNELS 6 Xposition Yposition Zposition Xrotation Yrotation Zrotation
				JOINT Haolin_28_06:Solving:RightForeFoot
				{
					OFFSET 0.000000 3.531212 -0.000000
					CHANNELS 6 Xposition Yposition Zposition Xrotation Yrotation Zrotation
					JOINT Haolin_28_06:Solving:RightToeBase
					{
						OFFSET 0.000000 0.000000 -13.829352
						CHANNELS 6 Xposition Yposition Zposition Xrotation Yrotation Zrotation
						JOINT Haolin_28_06:Solving:RightToeBaseEnd
						{
							OFFSET 0.000000 0.000000 -4.034167
							CHANNELS 6 Xposition Yposition Zposition Xrotation Yrotation Zrotation
							End Site
							{
								OFFSET 0.000000 -4.034164 0.000004
							}
						}
					}
				}
			}
		}
	}
	JOINT Haolin_28_06:Solving:LeftUpLeg
	{
		OFFSET 10.083070 0.000000 0.000000
		CHANNELS 6 Xposition Yposition Zposition Xrotation Yrotation Zrotation
		JOINT Haolin_28_06:Solving:LeftLeg
		{
			OFFSET 0.000000 47.042522 -0.000008
			CHANNELS 6 Xposition Yposition Zposition Xrotation Yrotation Zrotation
			JOINT Haolin_28_06:Solving:LeftFoot
			{
				OFFSET 0.000000 38.766415 -0.000006
				CHANNELS 6 Xposition Yposition Zposition Xrotation Yrotation Zrotation
				JOINT Haolin_28_06:Solving:LeftForeFoot
				{
					OFFSET 0.000000 3.531212 -0.000000
					CHANNELS 6 Xposition Yposition Zposition Xrotation Yrotation Zrotation
					JOINT Haolin_28_06:Solving:LeftToeBase
					{
						OFFSET 0.000000 0.000000 -13.829352
						CHANNELS 6 Xposition Yposition Zposition Xrotation Yrotation Zrotation
						JOINT Haolin_28_06:Solving:LeftToeBaseEnd
						{
							OFFSET 0.000000 0.000000 -4.855067
							CHANNELS 6 Xposition Yposition Zposition Xrotation Yrotation Zrotation
							End Site
							{
								OFFSET 0.000000 -4.855064 0.000004
							}
						}
					}
				}
			}
		}
	}
}
MOTION
Frames: 5
Frame Time: 0.041667
-3.805124 24.842075 -90.393730 34.876626 -72.821510 -57.349690 0.000001 -12.181941 2.015571 13.276262 -0.643110 2.419524 -0.000002 -8.890284 1.567607 1.574319 -0.471883 0.358641 -0.000001 -8.993086 0.786795 2.524112 -10.439502 4.670815 -0.000001 -9.027445 -0.000002 2.711406 -4.506772 11.469329 -0.000001 -11.606710 -1.160671 -2.083604 -15.107439 6.433137 -0.000002 -7.471623 -0.653679 0.590331 -28.790388 -3.308274 0.000003 -7.386214 -1.302382 5.261860 -1.730461 -0.915529 0.000006 -9.728065 -0.000003 0.000003 -0.000000 0.000001 0.000006 -8.290504 -5.270919 -0.000009 15.691163 11.856059 -19.261078 -0.000005 0.000007 -38.221643 -45.829938 -94.048529 -30.691694 -0.000038 0.000010 -6.046946 -66.065148 -5.530329 -20.216930 -0.000022 0.000020 0.836465 -13.953463 3.464868 -4.948795 2.881339 -3.679879 -0.000005 0.000009 0.000006 -13.196840 -0.000016 0.084587 -0.000003 0.000002 -0.000002 0.000001 -8.290520 -5.270919 -0.000006 -11.645684 -4.769330 19.261086 0.000003 0.000004 -10.935383 34.061378 81.148323 30.691711 -0.000016 -0.000004 0.972978 10.630700 -0.179507 20.216919 -0.000013 0.000003 -0.031227 -0.808636 -2.211449 4.948774 2.881323 -3.679885 -0.000005 -0.000002 -0.000002 13.196846 -0.000004 0.084594 0.000001 -0.000000 -0.000000 -10.083070 0.000018 0.000007 22.845770 35.330420 -5.740512 0.000002 47.042519 -0.000001 17.475042 -0.000004 -0.000004 -0.000005 38.766422 -0.000016 -20.941645 41.953498 -5.141812 0.000003 3.531204 -0.000001 0.000000 0.000000 0.000000 -0.000003 0.000011 -13.829355 -4.971140 -0.000000 0.000000 -0.000003 0.000000 -4.034171 -0.000000 -0.000000 -0.000001 10.083073 0.000026 0.000008 -10.029003 25.843359 9.049456 -0.000001 47.042538 0.000011 13.957486 -0.000002 -0.000000 -0.000007 38.766438 -0.000003 10.392162 2.827483 14.708302 0.000000 3.531219 -0.000004 -0.000001 -0.000001 -0.000002 -0.000001 0.000004 -13.829352 7.024009 -0.000002 0.000001 -0.000004 -0.000000 -4.855075 -0.000001 0.000000 0.000001 
-3.841494 24.869347 -90.400253 35.298127 -72.580295 -56.869777 0.000003 -12.181951 2.015562 13.272359 -0.642782 2.290398 0.000002 -8.890292 1.567601 1.579273 -0.464943 0.332818 -0.000002 -8.993112 0.786795 2.512516 -10.398128 4.634004 0.000002 -9.027442 -0.000002 2.723865 -4.490567 11.455451 -0.000006 -11.606720 -1.160659 -1.921873 -15.100595 6.472520 0.000006 -7.471606 -0.653676 0.693686 -28.810974 -3.304755 -0.000002 -7.386201 -1.302382 5.337306 -1.728919 -0.951255 0.000000 -9.728073 -0.000008 -0.000000 -0.000005 0.000004 -0.000004 -8.290493 -5.270907 -0.000012 15.696366 11.879318 -19.261059 0.000058 0.000005 -38.504939 -46.428105 -94.421997 -30.691698 -0.000012 0.000001 -5.453776 -66.623605 -5.008488 -20.216934 -0.000013 0.000004 0.587021 -13.628432 2.489832 -4.948806 2.881331 -3.679879 -0.000008 0.000005 0.000002 -13.196859 0.000003 0.084601 -0.000008 0.000001 0.000003 -0.000006 -8.290508 -5.270905 -0.000009 -11.647902 -4.924930 19.261082 -0.000017 0.000001 -10.763278 34.876664 80.895449 30.691729 -0.000014 -0.000003 2.893913 11.088185 -0.557010 20.216942 -0.000015 0.000001 -0.068298 -1.374115 -2.845554 4.948807 2.881331 -3.679893 -0.000000 -0.000007 0.000000 13.196861 -0.000008 0.084593 0.000000 -0.000003 -0.000000 -10.083063 0.000024 0.000001 22.943422 35.275922 -5.711466 -0.000002 47.042519 0.000001 17.505594 -0.000002 -0.000003 0.000000 38.766418 -0.000012 -20.876036 41.765722 -5.251512 -0.000005 3.531197 -0.000001 0.000000 0.000000 0.000000 0.000002 0.000017 -13.829354 -4.910388 -0.000001 -0.000000 -0.000002 -0.000015 -4.034169 0.000000 -0.000000 -0.000001 10.083074 0.000001 -0.000003 -9.828752 25.632851 8.903270 -0.000000 47.042522 -0.000002 13.974834 -0.000000 -0.000003 -0.000005 38.766415 -0.000002 10.367371 2.820919 14.713920 -0.000000 3.531212 -0.000000 -0.000002 -0.000006 -0.000001 0.000002 0.000004 -13.829356 7.063250 -0.000005 -0.000001 -0.000000 0.000001 -4.855072 0.000002 0.000006 0.000000 
-3.875872 24.898109 -90.409851 35.696710 -72.322824 -56.392651 0.000000 -12.181938 2.015561 13.262469 -0.626719 2.144248 0.000001 -8.890300 1.567601 1.578508 -0.458321 0.312549 0.000001 -8.993099 0.786797 2.534310 -10.360302 4.600651 0.000001 -9.027426 -0.000000 2.762677 -4.476922 11.414195 0.000004 -11.606668 -1.160655 -1.768086 -15.085934 6.552350 -0.000004 -7.471613 -0.653686 0.749533 -28.830150 -3.324105 -0.000001 -7.386192 -1.302391 5.421389 -1.726716 -0.995607 0.000001 -9.728104 -0.000002 0.000004 0.000001 -0.000003 -0.000001 -8.290501 -5.270899 -0.000009 15.695382 11.926786 -19.261084 -0.000031 0.000003 -38.820497 -47.017567 -94.801325 -30.691729 -0.000016 -0.000005 -5.825038 -67.031285 -5.366021 -20.216940 -0.000017 0.000003 0.362471 -13.193669 1.587680 -4.948797 2.881316 -3.679892 -0.000000 -0.000005 0.000002 -13.196844 -0.000028 0.084588 -0.000003 -0.000003 -0.000007 -0.000001 -8.290504 -5.270899 -0.000004 -11.645832 -5.083284 19.261074 0.000019 -0.000002 -10.633880 35.958279 80.668489 30.691713 -0.000014 0.000001 4.717435 11.368864 -0.931946 20.216921 -0.000013 0.000001 -0.106532 -1.752007 -3.479857 4.948781 2.881323 -3.679884 -0.000003 0.000000 -0.000003 13.196831 -0.000010 0.084595 -0.000005 0.000004 -0.000000 -10.083064 0.000019 0.000000 23.065549 35.225580 -5.695909 -0.000007 47.042526 -0.000001 17.533178 0.000006 -0.000003 0.000003 38.766407 -0.000015 -20.708806 41.459286 -5.219963 0.000003 3.531212 -0.000005 0.000001 0.000000 -0.000000 0.000000 -0.000006 -13.829355 -5.155922 0.000001 0.000001 0.000002 -0.000008 -4.034167 0.000000 -0.000000 0.000001 10.083070 0.000019 -0.000001 -9.613935 25.465611 8.743734 0.000001 47.042522 0.000001 13.999216 0.000003 -0.000002 -0.000003 38.766418 0.000001 10.334892 2.779429 14.726298 -0.000000 3.531219 0.000003 -0.000001 -0.000002 0.000000 -0.000001 0.000014 -13.829357 7.074026 0.000008 -0.000002 -0.000006 -0.000000 -4.855062 -0.000000 0.000009 -0.000002 
-3.907187 24.932524 -90.418015 36.299880 -72.015138 -55.745685 0.000005 -12.181957 2.015564 13.267276 -0.658821 2.068052 -0.000003 -8.890304 1.567600 1.584192 -0.454276 0.295644 0.000000 -8.993073 0.786796 2.566781 -10.308656 4.560839 0.000003 -9.027437 0.000002 2.786179 -4.463121 11.347336 0.000006 -11.606734 -1.160658 -1.736321 -15.098751 6.626865 0.000002 -7.471601 -0.653682 0.866708 -28.846170 -3.341822 -0.000000 -7.386196 -1.302376 5.509182 -1.720487 -1.062100 -0.000000 -9.728073 -0.000003 -0.000001 -0.000005 -0.000000 0.000007 -8.290508 -5.270909 -0.000010 15.728923 11.979628 -19.261063 0.000019 0.000005 -39.169772 -47.601429 -95.187900 -30.691702 -0.000034 0.000001 -6.161220 -67.286366 -5.686644 -20.216913 -0.000012 -0.000000 0.146388 -12.763795 0.662573 -4.948810 2.881311 -3.679889 0.000008 -0.000005 -0.000005 -13.196839 -0.000015 0.084585 0.000001 -0.000004 -0.000002 0.000009 -8.290508 -5.270909 -0.000005 -11.674499 -5.271803 19.261068 0.000017 -0.000002 -10.711757 36.516425 80.576664 30.691696 -0.000014 0.000001 6.992962 11.515568 -1.402725 20.216932 -0.000016 0.000009 -0.129114 -2.022639 -3.653265 4.948813 2.881333 -3.679881 -0.000000 -0.000005 -0.000003 13.196837 -0.000008 0.084588 -0.000003 -0.000004 -0.000001 -10.083070 0.000021 0.000004 23.157606 35.135466 -5.628861 -0.000003 47.042522 -0.000000 17.552941 0.000001 -0.000001 0.000001 38.766422 -0.000016 -20.637674 41.262423 -5.293526 0.000002 3.531212 -0.000003 0.000001 0.000000 -0.000001 -0.000001 0.000007 -13.829357 -5.162507 -0.000001 -0.000001 0.000002 0.000000 -4.034165 0.000000 -0.000000 -0.000001 10.083075 0.000016 0.000002 -9.388303 25.277265 8.597971 0.000001 47.042534 0.000004 14.001428 -0.000001 -0.000002 -0.000007 38.766418 -0.000003 10.302746 2.684157 14.767374 -0.000001 3.531212 0.000003 0.000000 0.000002 -0.000000 0.000004 0.000011 -13.829350 7.066685 -0.000001 0.000001 0.000005 -0.000000 -4.855077 -0.000001 -0.000006 0.000001 
-3.932218 24.964094 -90.429848 36.951887 -71.673635 -55.057916 0.000002 -12.181967 2.015564 13.302773 -0.706974 2.016159 0.000003 -8.890298 1.567606 1.579397 -0.451691 0.277667 0.000003 -8.993086 0.786796 2.518378 -10.258060 4.490820 0.000006 -9.027414 0.000001 2.826260 -4.447443 11.286493 0.000003 -11.606722 -1.160683 -1.524782 -15.109847 6.729456 0.000009 -7.471587 -0.653682 0.903516 -28.941533 -3.382794 0.000004 -7.386171 -1.302387 5.527298 -1.723760 -1.096842 -0.000001 -9.728065 -0.000007 0.000004 -0.000001 -0.000000 0.000002 -8.290531 -5.270926 -0.000008 15.717747 12.027462 -19.261076 0.000011 0.000007 -39.442406 -48.185502 -95.543288 -30.691711 -0.000012 0.000004 -6.948576 -67.368642 -6.418168 -20.216919 -0.000020 0.000004 -0.039327 -12.324298 -0.184271 -4.948815 2.881327 -3.679898 -0.000001 -0.000003 0.000008 -13.196855 -0.000016 0.084574 -0.000000 -0.000000 -0.000002 0.000000 -8.290539 -5.270927 -0.000006 -11.742127 -5.468960 19.261076 0.000039 -0.000006 -10.522215 37.867470 80.386634 30.691721 -0.000009 -0.000001 8.468599 11.787701 -1.742184 20.216927 -0.000013 0.000009 -0.178875 -2.376021 -4.306602 4.948799 2.881325 -3.679874 -0.000003 -0.000009 -0.000002 13.196845 -0.000013 0.084602 0.000002 -0.000001 -0.000001 -10.083066 -0.000002 0.000002 23.247621 34.981883 -5.533897 0.000003 47.042534 -0.000004 17.556325 -0.000006 -0.000000 -0.000002 38.766426 -0.000008 -20.609915 41.085452 -5.389997 -0.000000 3.531212 -0.000003 0.000001 0.000000 -0.000001 -0.000001 0.000021 -13.829353 -5.045820 0.000000 -0.000000 -0.000008 0.000000 -4.034168 0.000000 -0.000000 -0.000000 10.083072 0.000011 0.000007 -9.147838 25.092208 8.459819 0.000001 47.042519 0.000004 14.001784 -0.000003 -0.000003 -0.000004 38.766407 -0.000004 10.280277 2.559036 14.807521 0.000004 3.531204 0.000005 0.000001 0.000004 -0.000002 -0.000001 -0.000001 -13.829347 6.959597 0.000003 -0.000000 0.000001 0.000007 -4.855066 0.000001 0.000006 -0.000003 
